<svg width="200" height="100" viewBox="0 0 1076 277" fill="none" xmlns="http://www.w3.org/2000/svg">
    <path fill-rule="evenodd" clip-rule="evenodd" d="M155.603 219.817L154.167 221.14C153.789 220.687 153.487 220.347 153.184 220.12C152.882 219.931 152.428 219.817 151.861 219.817C151.219 219.817 150.728 219.969 150.35 220.309C149.934 220.611 149.745 221.027 149.745 221.556C149.745 221.972 149.934 222.387 150.274 222.69C150.614 223.03 151.181 223.408 152.013 223.824C152.806 224.239 153.449 224.617 153.902 224.958C154.356 225.298 154.734 225.713 155.036 226.129C155.339 226.545 155.528 226.998 155.679 227.452C155.83 227.906 155.905 228.397 155.905 228.926C155.905 230.135 155.528 231.194 154.734 232.025C153.978 232.895 153.033 233.31 151.937 233.31C150.879 233.31 149.934 232.97 149.102 232.328C148.309 231.647 147.666 230.627 147.25 229.304L148.989 228.737C149.594 230.362 150.576 231.194 151.861 231.194C152.504 231.194 153.033 230.967 153.449 230.551C153.865 230.135 154.091 229.569 154.091 228.926C154.091 228.51 153.978 228.132 153.751 227.754C153.524 227.339 153.26 226.998 152.92 226.772C152.617 226.507 152.088 226.205 151.37 225.865C150.69 225.487 150.123 225.147 149.745 224.882C149.367 224.617 149.027 224.277 148.724 223.899C148.46 223.521 148.271 223.143 148.12 222.728C148.006 222.35 147.931 221.934 147.931 221.518C147.931 220.46 148.309 219.591 149.027 218.835C149.745 218.117 150.652 217.739 151.71 217.739C152.391 217.739 153.109 217.928 153.827 218.268C154.507 218.608 155.112 219.137 155.603 219.817ZM164.485 218.23H167.282C168.642 218.23 169.739 218.608 170.608 219.402C171.477 220.158 171.931 221.178 171.931 222.387C171.931 223.37 171.628 224.239 171.099 224.958C170.532 225.751 169.663 226.28 168.491 226.583L172.157 232.857H170.154L166.639 226.847H166.224V232.857H164.485V218.23ZM166.224 219.969V225.071C168.794 225.109 170.079 224.277 170.079 222.501C170.079 221.896 169.928 221.367 169.625 220.989C169.361 220.611 168.945 220.309 168.454 220.195C167.924 220.044 167.206 219.969 166.224 219.969ZM180.624 218.23H182.362V232.857H180.624V218.23ZM197.254 218.23H198.992V230.854H203.15V232.857H197.254V218.23ZM215.811 217.663L221.82 232.857H220.006L218.532 229.115H213.128L211.654 232.857H209.839L215.811 217.663ZM215.849 222.236L213.77 227.452H217.89L215.849 222.236ZM229.531 217.625L238.942 228.737V218.23H240.68V233.537L231.269 222.425V232.857H229.531V217.625ZM249.487 218.23H251.225V224.164L256.592 218.23H259.049L252.888 224.995L259.087 232.857H256.857L251.225 225.751V232.857H249.487V218.23ZM271.71 217.663L277.757 232.857H275.943L274.431 229.115H269.027L267.553 232.857H265.739L271.71 217.663ZM271.748 222.236L269.707 227.452H273.789L271.748 222.236ZM283.427 217.928H285.657V220.573C285.657 221.102 285.543 221.669 285.317 222.236C285.052 222.803 284.75 223.295 284.334 223.71L283.54 222.879C284.183 222.123 284.523 221.329 284.561 220.498H283.427V217.928ZM302.135 219.817L300.737 221.14C300.359 220.687 300.019 220.347 299.717 220.12C299.414 219.931 298.998 219.817 298.394 219.817C297.789 219.817 297.26 219.969 296.882 220.309C296.504 220.611 296.315 221.027 296.315 221.556C296.315 221.972 296.466 222.387 296.806 222.69C297.146 223.03 297.713 223.408 298.545 223.824C299.376 224.239 300.019 224.617 300.472 224.958C300.926 225.298 301.304 225.713 301.568 226.129C301.871 226.545 302.098 226.998 302.249 227.452C302.362 227.906 302.438 228.397 302.438 228.926C302.438 230.135 302.06 231.194 301.304 232.025C300.51 232.895 299.603 233.31 298.507 233.31C297.449 233.31 296.504 232.97 295.672 232.328C294.841 231.647 294.236 230.627 293.783 229.304L295.521 228.737C296.164 230.362 297.109 231.194 298.431 231.194C299.074 231.194 299.565 230.967 299.981 230.551C300.435 230.135 300.624 229.569 300.624 228.926C300.624 228.51 300.51 228.132 300.283 227.754C300.094 227.339 299.83 226.998 299.49 226.772C299.15 226.507 298.658 226.205 297.94 225.865C297.222 225.487 296.693 225.147 296.277 224.882C295.899 224.617 295.559 224.277 295.294 223.899C295.03 223.521 294.803 223.143 294.69 222.728C294.539 222.35 294.463 221.934 294.463 221.518C294.463 220.46 294.841 219.591 295.597 218.835C296.315 218.117 297.222 217.739 298.242 217.739C298.961 217.739 299.641 217.928 300.359 218.268C301.077 218.608 301.682 219.137 302.135 219.817ZM316.687 218.23H318.463V230.854H322.583V232.857H316.687V218.23ZM330.255 218.23H331.994V227.225C331.994 228.548 332.258 229.569 332.825 230.287C333.392 231.005 334.186 231.383 335.206 231.383C336.189 231.383 336.983 231.043 337.55 230.4C338.117 229.72 338.381 228.775 338.381 227.565V218.23H340.157V227.414C340.157 229.191 339.704 230.627 338.797 231.723C337.928 232.781 336.718 233.31 335.244 233.31C333.732 233.31 332.523 232.781 331.616 231.685C330.709 230.589 330.255 229.002 330.255 226.885V218.23ZM348.397 218.23H350.324L353.159 223.559L355.994 218.23H357.921L354.142 225.373L358.035 232.857H356.145L353.159 227.263L350.211 232.857H348.283L352.214 225.373L348.397 218.23ZM366.35 218.23H368.088V227.225C368.088 228.548 368.353 229.569 368.92 230.287C369.487 231.005 370.242 231.383 371.263 231.383C372.283 231.383 373.077 231.043 373.644 230.4C374.211 229.72 374.476 228.775 374.476 227.565V218.23H376.214V227.414C376.214 229.191 375.798 230.627 374.891 231.723C374.022 232.781 372.813 233.31 371.339 233.31C369.827 233.31 368.617 232.781 367.71 231.685C366.803 230.589 366.35 229.002 366.35 226.885V218.23ZM385.209 218.23H387.968C389.367 218.23 390.463 218.608 391.332 219.402C392.202 220.158 392.655 221.178 392.655 222.387C392.655 223.37 392.353 224.239 391.824 224.958C391.257 225.751 390.387 226.28 389.216 226.583L392.882 232.857H390.879L387.364 226.847H386.948V232.857H385.209V218.23ZM386.948 219.969V225.071C389.518 225.109 390.803 224.277 390.803 222.501C390.803 221.896 390.652 221.367 390.35 220.989C390.047 220.611 389.669 220.309 389.178 220.195C388.649 220.044 387.931 219.969 386.948 219.969ZM399.609 218.23H401.537L404.674 224.126L407.773 218.23H409.701L405.505 226.167V232.857H403.767V226.167L399.609 218.23ZM423.534 218.23H426.633C429.052 218.23 430.904 218.948 432.076 220.422C433.285 221.934 433.89 223.597 433.89 225.524C433.89 227.452 433.247 229.153 432.038 230.627C430.791 232.101 428.976 232.857 426.633 232.857H423.534V218.23ZM425.272 220.158V230.854H425.386C426.671 230.854 427.616 230.778 428.296 230.665C428.939 230.513 429.543 230.211 430.148 229.758C430.715 229.342 431.168 228.737 431.546 227.981C431.887 227.225 432.038 226.432 432.038 225.487C432.038 224.391 431.773 223.37 431.206 222.463C430.677 221.556 429.997 220.951 429.241 220.649C428.485 220.309 427.427 220.158 426.142 220.158H425.272ZM441.94 218.23H449.008V220.195H443.679V223.824H449.008V225.865H443.679V230.854H449.008V232.857H441.94V218.23ZM464.995 219.817L463.597 221.14C463.219 220.687 462.879 220.347 462.576 220.12C462.274 219.931 461.858 219.817 461.291 219.817C460.649 219.817 460.157 219.969 459.742 220.309C459.364 220.611 459.175 221.027 459.175 221.556C459.175 221.972 459.326 222.387 459.666 222.69C460.006 223.03 460.611 223.408 461.405 223.824C462.236 224.239 462.879 224.617 463.332 224.958C463.786 225.298 464.164 225.713 464.466 226.129C464.731 226.545 464.957 226.998 465.109 227.452C465.26 227.906 465.335 228.397 465.335 228.926C465.335 230.135 464.92 231.194 464.164 232.025C463.408 232.895 462.463 233.31 461.367 233.31C460.309 233.31 459.364 232.97 458.532 232.328C457.739 231.647 457.096 230.627 456.642 229.304L458.381 228.737C459.024 230.362 460.006 231.194 461.291 231.194C461.934 231.194 462.463 230.967 462.879 230.551C463.294 230.135 463.483 229.569 463.483 228.926C463.483 228.51 463.37 228.132 463.181 227.754C462.954 227.339 462.69 226.998 462.35 226.772C462.047 226.507 461.518 226.205 460.8 225.865C460.082 225.487 459.553 225.147 459.175 224.882C458.759 224.617 458.457 224.277 458.154 223.899C457.89 223.521 457.663 223.143 457.55 222.728C457.398 222.35 457.361 221.934 457.361 221.518C457.361 220.46 457.701 219.591 458.457 218.835C459.175 218.117 460.082 217.739 461.102 217.739C461.82 217.739 462.501 217.928 463.219 218.268C463.937 218.608 464.542 219.137 464.995 219.817ZM472.894 218.23H480.718V220.195H477.657V232.857H475.918V220.195H472.894V218.23ZM488.768 218.23H490.507V232.857H488.768V218.23ZM499.389 217.625L508.8 228.737V218.23H510.539V233.537L501.128 222.425V232.857H499.389V217.625ZM524.107 217.663L530.117 232.857H528.302L526.828 229.115H521.424L519.95 232.857H518.135L524.107 217.663ZM524.107 222.236L522.066 227.452H526.148L524.107 222.236ZM536.088 218.23H543.912V220.195H540.888V232.857H539.15V220.195H536.088V218.23ZM552 218.23H553.739V232.857H552V218.23ZM562.167 225.411C562.167 223.295 562.885 221.518 564.246 220.006C565.644 218.495 567.307 217.739 569.272 217.739C571.162 217.739 572.787 218.495 574.186 220.006C575.546 221.518 576.227 223.332 576.227 225.411C576.227 227.641 575.546 229.493 574.186 231.043C572.825 232.554 571.162 233.31 569.197 233.31C567.269 233.31 565.606 232.554 564.246 231.005C562.847 229.493 562.167 227.641 562.167 225.411ZM574.375 225.524C574.375 223.899 573.883 222.576 572.863 221.443C571.842 220.347 570.595 219.817 569.121 219.817C567.723 219.817 566.513 220.384 565.531 221.48C564.51 222.614 564.019 223.937 564.019 225.524C564.019 227.15 564.51 228.51 565.568 229.606C566.589 230.702 567.836 231.232 569.348 231.232C570.709 231.232 571.918 230.665 572.901 229.569C573.883 228.435 574.375 227.112 574.375 225.524ZM584.579 217.625L594.028 228.737V218.23H595.767V233.537L586.318 222.425V232.857H584.579V217.625ZM620.712 217.625L624.189 232.857H622.488L620.372 223.484L616.743 233.386L613.115 223.446L610.961 232.857H609.26L612.737 217.625L616.743 228.51L620.712 217.625ZM636.926 217.663L642.973 232.857H641.159L639.647 229.115H634.242L632.768 232.857H630.954L636.926 217.663ZM636.964 222.236L634.923 227.452H639.005L636.964 222.236ZM650.646 217.625L660.057 228.737V218.23H661.795V233.537L652.384 222.425V232.857H650.646V217.625ZM675.364 217.663L681.373 232.857H679.559L678.085 229.115H672.68L671.206 232.857H669.392L675.364 217.663ZM675.364 222.236L673.323 227.452H677.405L675.364 222.236ZM700.876 220.535L699.591 222.009C698.268 220.535 696.756 219.817 695.055 219.817C693.543 219.817 692.296 220.347 691.313 221.443C690.293 222.576 689.802 223.937 689.802 225.6C689.802 227.074 690.293 228.359 691.276 229.493C692.22 230.665 693.581 231.232 695.282 231.232C697.814 231.232 699.402 229.984 700.082 227.452H696.605V225.411H702.047C702.047 226.432 702.009 227.263 701.896 227.83C701.783 228.435 701.518 229.077 701.178 229.795C700.8 230.513 700.309 231.156 699.704 231.723C699.099 232.29 698.419 232.706 697.739 232.932C697.02 233.197 696.189 233.31 695.244 233.31C693.014 233.31 691.276 232.517 689.953 230.929C688.63 229.342 687.987 227.565 687.987 225.487C687.987 223.332 688.668 221.518 689.991 220.006C691.351 218.495 692.976 217.739 694.866 217.739C696 217.739 697.058 217.928 698.003 218.343C698.948 218.721 699.893 219.477 700.876 220.535ZM710.362 218.23H717.43V220.195H712.101V223.824H717.43V225.865H712.101V230.854H717.43V232.857H710.362V218.23ZM736.214 217.625L739.729 232.857H738.028L735.874 223.484L732.208 233.386L728.579 223.446L726.463 232.857H724.762L728.239 217.625L732.208 228.51L736.214 217.625ZM747.553 218.23H754.62V220.195H749.291V223.824H754.62V225.865H749.291V230.854H754.62V232.857H747.553V218.23ZM762.746 217.625L772.195 228.737V218.23H773.934V233.537L764.485 222.425V232.857H762.746V217.625ZM781.946 218.23H789.77V220.195H786.709V232.857H784.97V220.195H781.946V218.23ZM813.808 218.721V220.951C812.447 220.195 811.2 219.817 810.028 219.817C808.554 219.817 807.307 220.347 806.287 221.443C805.266 222.539 804.775 223.899 804.775 225.487C804.775 227.15 805.304 228.472 806.324 229.569C807.345 230.665 808.668 231.194 810.217 231.194C811.351 231.194 812.561 230.778 813.808 229.984V232.252C812.674 232.97 811.427 233.31 810.066 233.31C808.101 233.31 806.4 232.554 805.002 231.005C803.603 229.493 802.923 227.641 802.923 225.449C802.923 223.332 803.603 221.518 804.964 220.006C806.362 218.495 808.025 217.739 809.953 217.739C811.2 217.739 812.485 218.079 813.808 218.721ZM821.556 225.411C821.556 223.295 822.236 221.518 823.635 220.006C825.033 218.495 826.696 217.739 828.624 217.739C830.513 217.739 832.176 218.495 833.537 220.006C834.898 221.518 835.616 223.332 835.616 225.411C835.616 227.641 834.935 229.493 833.575 231.043C832.214 232.554 830.551 233.31 828.586 233.31C826.62 233.31 824.957 232.554 823.597 231.005C822.236 229.493 821.556 227.641 821.556 225.411ZM833.764 225.524C833.764 223.899 833.235 222.576 832.252 221.443C831.231 220.347 829.984 219.817 828.51 219.817C827.074 219.817 825.865 220.384 824.882 221.48C823.861 222.614 823.37 223.937 823.37 225.524C823.37 227.15 823.899 228.51 824.92 229.606C825.94 230.702 827.225 231.232 828.699 231.232C830.098 231.232 831.269 230.665 832.252 229.569C833.272 228.435 833.764 227.112 833.764 225.524ZM854.551 217.625L858.066 232.857H856.365L854.211 223.484L850.62 233.386L846.954 223.446L844.838 232.857H843.137L846.614 217.625L850.62 228.51L854.551 217.625ZM866.457 218.23H869.027C870.463 218.23 871.635 218.608 872.504 219.402C873.411 220.158 873.865 221.178 873.865 222.425C873.865 223.672 873.373 224.731 872.466 225.6C871.521 226.432 870.085 226.847 868.195 226.847V232.857H866.457V218.23ZM868.195 219.969V225.071C869.48 225.033 870.463 224.844 871.068 224.428C871.71 224.013 872.013 223.37 872.013 222.463C872.013 221.783 871.786 221.178 871.332 220.687C870.841 220.195 869.783 219.969 868.195 219.969ZM885.581 217.663L891.591 232.857H889.814L888.302 229.115H882.898L881.424 232.857H879.609L885.581 217.663ZM885.619 222.236L883.578 227.452H887.66L885.619 222.236ZM899.301 217.625L908.712 228.737V218.23H910.45V233.537L901.039 222.425V232.857H899.301V217.625ZM918.501 218.23H920.428L923.528 224.126L926.665 218.23H928.554L924.397 226.167V232.857H922.658V226.167L918.501 218.23Z" fill="black"/>
    <path fill-rule="evenodd" clip-rule="evenodd" d="M146.759 112.365C146.759 93.1653 141.203 76.9512 130.091 63.7606C118.375 49.663 103.105 42.6331 84.359 42.6331H37.8708V182.476H84.359C103.257 182.476 118.602 175.446 130.28 161.348C141.279 148.044 146.759 131.679 146.759 112.365ZM138.935 112.441C138.935 131.679 133.228 147.024 121.852 158.551C111.269 169.285 98.7968 174.652 84.4346 174.652H45.6945V50.4567H84.4346C101.027 50.4567 114.406 56.6929 124.573 69.2787C134.135 80.9197 138.935 95.3197 138.935 112.441ZM226.923 50.4567V42.6331H157.228V50.4567H188.145V182.476H195.968V50.4567H226.923Z" fill="#666666"/>
    <path fill-rule="evenodd" clip-rule="evenodd" d="M449.197 51.6661V43.8047H379.124V51.6661H410.23V184.29H418.091V51.6661H449.197Z" fill="#666666"/>
    <path fill-rule="evenodd" clip-rule="evenodd" d="M556.46 184.29L511.635 114.066C517.228 114.066 522.368 113.31 527.055 111.95C531.78 110.551 535.861 108.435 539.339 105.562C542.778 102.652 545.461 98.9858 547.351 94.526C549.241 90.0661 550.186 84.7748 550.186 78.6141C550.186 72.9826 549.165 67.9937 547.162 63.6472C545.121 59.3385 542.4 55.6724 539.036 52.7244C535.597 49.7763 531.553 47.5464 526.866 46.0346C522.18 44.5228 517.228 43.8047 511.975 43.8047H479.698V184.29H487.559V114.066H502.639L547.049 184.29H556.46ZM542.324 78.4252C542.324 87.3826 539.717 94.2236 534.501 98.9858C529.323 103.748 522.52 106.129 514.129 106.129H487.559V51.6661H511.975C516.17 51.6661 520.101 52.1952 523.767 53.3291C527.433 54.463 530.646 56.1259 533.405 58.2803C536.164 60.4724 538.356 63.2693 539.943 66.5952C541.531 69.9968 542.324 73.9275 542.324 78.4252Z" fill="#666666"/>
    <path fill-rule="evenodd" clip-rule="evenodd" d="M670.828 185.499H662.362L625.323 69.3543L588.548 185.499H580.309L625.323 42.6331L670.828 185.499Z" fill="#666666"/>
    <path fill-rule="evenodd" clip-rule="evenodd" d="M771.364 42.6331H762.898L725.858 158.74L689.083 42.6331H680.844L725.858 185.499L771.364 42.6331Z" fill="#666666"/>
    <path fill-rule="evenodd" clip-rule="evenodd" d="M857.461 184.29V176.391H798.009V111.647H857.461V102.992H798.009V51.6661H857.461V43.8047H790.148V184.29H857.461Z" fill="#666666"/>
    <path fill-rule="evenodd" clip-rule="evenodd" d="M934.186 184.29V176.391H894.614V43.8047H886.753V184.29H934.186Z" fill="#666666"/>
    <path fill-rule="evenodd" clip-rule="evenodd" d="M1037.9 147.515C1037.9 136.365 1034.08 127.03 1026.48 119.546C1023.72 116.825 1020.13 114.104 1015.67 111.383C1011.21 108.699 1005.88 105.978 999.723 103.219C989.858 98.7968 983.282 95.2441 980.032 92.5984C974.249 87.6472 971.376 81.789 971.376 75.0614C971.376 67.5779 974.136 61.5685 979.616 56.9575C984.756 52.6488 991.181 50.4945 998.929 50.4945C1006.3 50.4945 1012.23 51.9307 1016.84 54.8031C1020.51 56.9197 1023.65 60.1323 1026.29 64.4409L1033.97 61.1149C1027.12 48.7937 1015.45 42.6331 998.929 42.6331C988.951 42.6331 980.561 45.6189 973.72 51.6661C966.917 57.6 963.477 65.3858 963.477 75.0992C963.477 84.8882 966.917 92.674 973.72 98.6079C977.802 102.274 985.398 106.62 996.548 111.609C1002.48 114.217 1007.32 116.598 1011.14 118.677C1014.95 120.794 1017.75 122.721 1019.6 124.422C1026.56 130.583 1030.03 138.331 1030.03 147.666C1030.03 157.531 1027.09 165.014 1021.15 170.154C1015.41 175.143 1007.47 177.638 997.38 177.638C979.616 177.638 968.466 169.247 963.893 152.466L955.843 155.187C962.003 175.408 975.836 185.499 997.38 185.499C1004.33 185.499 1010.34 184.592 1015.45 182.74C1030.41 177.109 1037.9 165.354 1037.9 147.515Z" fill="#666666"/>
    <path fill-rule="evenodd" clip-rule="evenodd" d="M348.472 112.932C348.472 97.5874 344.013 84.6615 335.206 74.1166C329.046 66.7843 321.713 61.7953 313.172 59.263L284.561 94.904C281.197 99.0615 275.074 99.7418 270.917 96.4158C266.759 93.052 266.079 86.9292 269.405 82.7717L289.89 57.2599H261.468V127.484L271.861 114.52C275.187 110.324 281.348 109.644 285.506 112.97C289.663 116.372 290.343 122.495 286.98 126.652L261.468 158.476V168.983H275.528C275.49 166.753 276.17 164.485 277.682 162.633L308.561 124.158L294.879 113.197C290.721 109.833 290.041 103.672 293.367 99.515C296.731 95.3575 302.854 94.6772 307.049 98.041L346.507 129.751C347.792 124.498 348.472 118.904 348.472 112.932Z" stroke="#FF6633" stroke-width="4.0063"/>
    <path fill-rule="evenodd" clip-rule="evenodd" d="M297.487 168.983H298.583C313.739 168.983 325.984 163.351 335.357 152.088C336.454 150.728 337.512 149.329 338.494 147.893C337.852 147.553 337.247 147.175 336.718 146.759L323.716 136.328L297.487 168.983Z" stroke="#FF6633" stroke-width="4.0063"/>
    <path fill-rule="evenodd" clip-rule="evenodd" d="M309.657 89.3102C305.499 85.9842 304.781 79.8236 308.145 75.6661L308.447 75.326C311.773 71.1307 317.896 70.4882 322.091 73.8142C326.249 77.1401 326.891 83.3008 323.565 87.4583L323.263 87.7984C319.937 91.9559 313.814 92.6362 309.657 89.3102Z" stroke="#FF6633" stroke-width="4.0063"/>
    <path d="M261.468 50.6457V42.8977H348.472V80.2772" stroke="#FF6633" stroke-width="4.0063"/>
    <path d="M261.468 176.239V182.173H348.472V136.29" stroke="#FF6633" stroke-width="4.0063"/>
</svg>
