<svg width="60" height="93" viewBox="0 0 60 93" fill="none" xmlns="http://www.w3.org/2000/svg">
    <path fill-rule="evenodd" clip-rule="evenodd" d="M56.7754 45.9864C56.7754 36.5469 54.0507 28.5795 48.6078 22.0971C44.8372 17.5581 40.3111 14.5041 35.049 12.9352L17.4419 34.8876C15.3822 37.4508 11.5987 37.864 9.03542 35.8109C6.47861 33.7512 6.05893 29.9741 8.11858 27.4044L20.7348 11.6955H3.21803V54.9288L9.62296 46.942C11.6826 44.3787 15.4597 43.9655 18.0294 46.0187C20.5927 48.0784 21.0059 51.8555 18.9463 54.4187L3.21803 74.0209V80.4711H11.8957C11.8569 79.1087 12.2831 77.727 13.1999 76.5842L32.2146 52.8885L23.8016 46.1349C21.2384 44.0753 20.8251 40.2982 22.8783 37.7349C24.938 35.1717 28.7151 34.7584 31.2784 36.8181L55.5745 56.3105C56.3751 53.0887 56.7754 49.6473 56.7754 45.9864Z" stroke="#FF6633" stroke-width="2.4"/>
    <path fill-rule="evenodd" clip-rule="evenodd" d="M25.4029 80.471H26.0937C35.3912 80.471 42.9325 77.0038 48.7047 70.0694C49.3891 69.2365 50.0348 68.3713 50.6352 67.4868C50.2543 67.2996 49.8863 67.0671 49.5376 66.7895L41.5314 60.3652L25.4029 80.471Z" stroke="#FF6633" stroke-width="2.4"/>
    <path fill-rule="evenodd" clip-rule="evenodd" d="M32.8731 31.4397C30.3099 29.3865 29.8967 25.603 31.9499 23.0397L32.1306 22.8137C34.1838 20.2569 37.9609 19.8372 40.5242 21.8969C43.0875 23.9501 43.5071 27.7336 41.4475 30.2969L41.2667 30.5229C39.2135 33.0862 35.4364 33.4994 32.8731 31.4397Z" stroke="#FF6633" stroke-width="2.4"/>
    <path d="M3.21803 7.98947V3.21805H56.7754V28.1469" stroke="#FF6633" stroke-width="2.4"/>
    <path d="M3.21803 85.3006V88.955H56.7754V60.7204" stroke="#FF6633" stroke-width="2.4"/>
</svg>
